<?xml version="1.0" encoding="UTF-8"?>
<svg xmlns="http://www.w3.org/2000/svg" id="Layer_1" data-name="Layer 1" viewBox="0 0 24 24">
  <path d="M16.542,8.563c-1.123-1.457-4.423-5.306-7.911-5.306-.32,0-.589,.152-.739,.417-.555,.984,.928,3.882,1.689,5.245-1.267,.098-2.728,.342-3.315,.446-1.096-1.034-3.152-2.005-4.339-1.754-.437,.093-.748,.352-.876,.728-.233,.684,.509,2.502,1.041,3.66-.531,1.157-1.272,2.976-1.041,3.659,.128,.38,.444,.642,.889,.736,1.094,.233,3.146-.603,4.312-1.72,.586,.097,2.046,.325,3.312,.418-.756,1.361-2.226,4.253-1.674,5.23,.15,.266,.42,.418,.741,.418,3.488,0,6.788-3.849,7.911-5.306,5.612-.495,6.458-2.359,6.458-3.437s-.846-2.94-6.458-3.437Zm-.303,5.896c-.143,.011-.273,.083-.36,.197-.885,1.179-3.99,4.99-7.13,5.084-.031-.656,.96-2.981,2.085-4.85,.092-.153,.096-.344,.009-.501-.087-.156-.251-.254-.43-.257-1.583-.022-4.222-.481-4.249-.485-.028-.005-.057-.008-.086-.008-.139,0-.272,.058-.368,.161-.941,1.021-2.802,1.778-3.563,1.616-.06-.013-.135-.036-.145-.062-.062-.352,.516-1.908,1.093-3.143,.063-.134,.063-.29,0-.424-.578-1.232-1.156-2.788-1.098-3.125,.011-.031,.057-.056,.139-.073,.729-.163,2.644,.633,3.595,1.655,.117,.125,.288,.181,.458,.15,.026-.005,2.664-.496,4.241-.518,.179-.002,.344-.101,.431-.258,.087-.157,.083-.348-.01-.501-1.033-1.704-2.14-4.16-2.102-4.86,3.139,.095,6.244,3.906,7.129,5.084,.086,.115,.217,.187,.36,.198,4.248,.34,5.761,1.493,5.761,2.458s-1.514,2.119-5.761,2.459Z"/>
</svg>
