<?xml version="1.0" encoding="UTF-8"?>
<svg xmlns="http://www.w3.org/2000/svg" id="Layer_1" data-name="Layer 1" viewBox="0 0 24 24">
  <g>
    <path d="m11.997.975C4.93,1.02,1,5.043,1,12.009c0,7.108,3.833,10.974,11.003,11.016,7.164-.042,10.864-3.749,10.997-11.034-.122-7.058-4.027-10.971-11.003-11.016Zm.006,21.05c-6.605-.039-9.877-3.318-10.003-10.025.121-6.61,3.486-9.983,9.997-10.024,4.485.029,9.862,1.794,10.003,10.016-.123,6.713-3.395,9.995-9.997,10.034Z"/>
    <path d="m11.997,5.783c-2.378.015-3.71,1.348-3.753,3.755-.005.276.215.504.491.509.268-.017.504-.216.509-.491.033-1.88.91-2.762,2.753-2.773,1.826.012,2.728.918,2.76,2.755-.035,1.907-.887,2.763-2.76,2.773-.275.001-.497.225-.497.5v1.688c0,.276.224.5.5.5s.5-.224.5-.5v-1.211c2.092-.182,3.215-1.465,3.257-3.75-.042-2.406-1.375-3.74-3.76-3.755Z"/>
  </g>
  <path d="m12,17c-.415,0-.751.336-.751.751s.336.751.751.751.751-.336.751-.751-.336-.751-.751-.751Z"/>
</svg>
